<svg width="33" height="34" viewBox="0 0 33 34" fill="none" xmlns="http://www.w3.org/2000/svg">
<path d="M16.9609 16.2248C16.547 16.6384 15.9859 16.8707 15.4009 16.8707L0.737445 16.8707C0.0854206 16.8707 -0.24429 16.0852 0.212371 15.6198L14.7999 0.753253C15.2149 0.330305 15.7826 0.0920154 16.3751 0.0920138L31.3271 0.0919897C31.9826 0.0919883 32.3108 0.884602 31.8471 1.34796L16.9609 16.2248Z" fill="#5200FF"/>
<path fill-rule="evenodd" clip-rule="evenodd" d="M16.1361 18.7151C16.7211 18.7151 17.2822 18.4828 17.6961 18.0692L19.4852 16.2813L31.3268 16.2813C31.9823 16.2812 32.3104 17.0739 31.8468 17.5372L16.9605 32.4141C16.5467 32.8276 15.9856 33.0599 15.4005 33.0599H0.737103C0.0850798 33.0599 -0.244633 32.2745 0.212028 31.8091L13.0602 18.7151H16.1361Z" fill="#5200FF" fill-opacity="0.5"/>
</svg>
